<svg width="232" height="64" viewBox="0 0 232 64" fill="none" xmlns="http://www.w3.org/2000/svg">
<path d="M85.1648 39.1875H68.5398L65.9148 44H62.8523L75.1023 23H78.6023L90.8523 44H87.7898L85.1648 39.1875ZM83.8523 37L76.8523 24.75L69.8523 37H83.8523ZM108.352 23H110.977V44H108.352V23ZM138.54 44.3008C136.79 44.3008 135.304 44.1823 134.083 43.9453C132.861 43.6992 131.868 43.2799 131.102 42.6875C130.337 42.0951 129.781 41.3021 129.434 40.3086C129.088 39.3151 128.915 38.0664 128.915 36.5625C128.915 34.8398 129.088 33.418 129.434 32.2969C129.781 31.1667 130.337 30.2689 131.102 29.6035C131.868 28.9382 132.861 28.4733 134.083 28.209C135.304 27.9447 136.79 27.8125 138.54 27.8125C139.789 27.8125 140.869 27.9036 141.78 28.0859C142.701 28.2682 143.484 28.5326 144.132 28.8789C144.788 29.2253 145.317 29.6445 145.718 30.1367C146.128 30.6289 146.447 31.1484 146.675 31.6953C146.912 32.2331 147.071 32.8665 147.153 33.5957C147.244 34.3249 147.29 35.0951 147.29 35.9062L147.071 36.7812H131.54C131.54 37.9844 131.658 38.9733 131.895 39.748C132.132 40.5137 132.524 41.0742 133.071 41.4297C133.618 41.7852 134.338 42.013 135.231 42.1133C136.124 42.2044 137.227 42.25 138.54 42.25C139.743 42.25 140.736 42.2181 141.52 42.1543C142.313 42.0814 142.942 41.9492 143.407 41.7578C143.872 41.5664 144.195 41.3021 144.378 40.9648C144.569 40.6185 144.665 40.1719 144.665 39.625H147.29C147.29 40.4727 147.139 41.1973 146.839 41.7988C146.547 42.3913 146.059 42.8743 145.376 43.248C144.692 43.6126 143.79 43.877 142.669 44.041C141.557 44.2142 140.18 44.3008 138.54 44.3008ZM138.54 30C137.665 30 136.881 30.0182 136.188 30.0547C135.505 30.0911 134.903 30.1732 134.384 30.3008C133.873 30.4193 133.436 30.597 133.071 30.834C132.706 31.0618 132.41 31.3353 132.182 31.6543C131.964 31.9642 131.8 32.4062 131.69 32.9805C131.59 33.5456 131.54 34.2292 131.54 35.0312H144.665C144.665 33.9648 144.551 33.1309 144.323 32.5293C144.095 31.9186 143.735 31.4173 143.243 31.0254C142.751 30.6335 142.117 30.3646 141.343 30.2188C140.568 30.0729 139.634 30 138.54 30ZM164.79 23H167.415V34.4844H168.29L177.915 28.25H181.852L170.696 35.5781L182.29 44H178.352L168.29 36.4531H167.415V44H164.79V23ZM200.678 28.25V37C200.678 37.9753 200.751 38.8001 200.897 39.4746C201.043 40.14 201.335 40.6777 201.772 41.0879C202.21 41.498 202.83 41.7943 203.632 41.9766C204.434 42.1589 205.491 42.25 206.803 42.25C208.225 42.25 209.387 42.1452 210.29 41.9355C211.201 41.7259 211.917 41.4297 212.436 41.0469C212.956 40.6641 213.311 40.2038 213.503 39.666C213.703 39.1283 213.803 38.5312 213.803 37.875V28.25H216.428V44H213.803V41.375C213.676 41.6576 213.462 41.972 213.161 42.3184C212.86 42.6556 212.409 42.9701 211.807 43.2617C211.206 43.5534 210.427 43.7995 209.47 44C208.522 44.2005 207.341 44.3008 205.928 44.3008C204.753 44.3008 203.741 44.2279 202.893 44.082C202.055 43.9453 201.339 43.7402 200.747 43.4668C200.164 43.1842 199.694 42.8379 199.339 42.4277C198.983 42.0176 198.71 41.5436 198.518 41.0059C198.327 40.459 198.199 39.8529 198.136 39.1875C198.072 38.5221 198.04 37.793 198.04 37L198.053 28.25H200.678Z" fill="white"/>
<path d="M6.08815 45.7145H1.91593C1.0086 45.7145 0.396584 44.7871 0.753348 43.9528L6.37216 30.814C7.37825 28.4614 10.6786 28.3672 11.8172 30.6587L12.6953 32.4261C13.0905 33.2213 13.113 34.1508 12.7568 34.9643L8.83624 43.9178C8.3583 45.0093 7.2797 45.7145 6.08815 45.7145Z" fill="white"/>
<path d="M24.474 43.9445L14.016 20.6874C13.1233 18.7022 14.5754 16.457 16.7521 16.457H17.9409C19.1091 16.457 20.171 17.1352 20.6625 18.195L31.4473 41.4521C32.3693 43.4404 30.9174 45.7142 28.7257 45.7142H27.2101C26.0292 45.7142 24.9582 45.0215 24.474 43.9445Z" fill="white"/>
</svg>
