<svg width="16" height="16" viewBox="0 0 16 16" fill="none" xmlns="http://www.w3.org/2000/svg">
<path d="M9.125 0.69998L15.725 7.29998C15.825 7.39998 15.896 7.50831 15.938 7.62498C15.9793 7.74165 16 7.86665 16 7.99998C16 8.13331 15.9793 8.25831 15.938 8.37498C15.896 8.49165 15.825 8.59998 15.725 8.69998L9.125 15.3C8.94167 15.4833 8.71267 15.5793 8.438 15.588C8.16267 15.596 7.925 15.5 7.725 15.3C7.525 15.1166 7.42067 14.8876 7.412 14.613C7.404 14.3376 7.5 14.1 7.7 13.9L12.6 8.99998L1.425 8.99998C1.14167 8.99998 0.904 8.90431 0.712 8.71298C0.520666 8.52098 0.424999 8.28331 0.424999 7.99998C0.424999 7.71665 0.520666 7.47931 0.712 7.28798C0.904 7.09598 1.14167 6.99998 1.425 6.99998L12.6 6.99998L7.7 2.09998C7.51667 1.91665 7.42067 1.68331 7.412 1.39998C7.404 1.11664 7.5 0.883313 7.7 0.69998C7.88333 0.49998 8.11667 0.399979 8.4 0.399979C8.68333 0.399979 8.925 0.49998 9.125 0.69998Z" fill="white"/>
</svg>
