<svg width="876" height="499" viewBox="0 0 876 499" fill="none" xmlns="http://www.w3.org/2000/svg">
<rect width="876" height="499" rx="24" fill="url(#paint0_linear_9_190)"/>
<path d="M731.5 436.5C727.91 436.5 725 439.41 725 443C725 446.59 727.91 449.5 731.5 449.5C735.09 449.5 738 446.59 738 443C738 439.41 735.09 436.5 731.5 436.5ZM731.5 436.5C735.09 436.5 738 433.59 738 430C738 426.41 735.09 423.5 731.5 423.5H718.5C714.91 423.5 712 426.41 712 430C712 433.59 714.91 436.5 718.5 436.5M731.5 436.5H718.5M718.5 436.5C716.776 436.5 715.123 437.185 713.904 438.404C712.685 439.623 712 441.276 712 443C712 444.724 712.685 446.377 713.904 447.596C715.123 448.815 716.776 449.5 718.5 449.5M718.5 449.5H725M718.5 449.5C717.214 449.5 715.958 449.881 714.889 450.595C713.82 451.31 712.987 452.325 712.495 453.513C712.003 454.7 711.874 456.007 712.125 457.268C712.376 458.529 712.995 459.687 713.904 460.596C714.813 461.505 715.971 462.124 717.232 462.375C718.493 462.626 719.8 462.497 720.987 462.005C722.175 461.513 723.19 460.68 723.905 459.611C724.619 458.542 725 457.286 725 456V423.5" stroke="white" stroke-width="3" stroke-linecap="round" stroke-linejoin="round"/>
<path d="M771.96 449V437.8H778.576V439.752H773.912V442.024H777.808V443.976H773.912V449H771.96ZM779.273 441H781.225V449H779.273V441ZM780.265 439.968C779.977 439.968 779.734 439.875 779.537 439.688C779.339 439.496 779.241 439.256 779.241 438.968C779.241 438.685 779.339 438.448 779.537 438.256C779.734 438.064 779.974 437.968 780.257 437.968C780.539 437.968 780.777 438.064 780.969 438.256C781.166 438.448 781.265 438.685 781.265 438.968C781.265 439.256 781.169 439.496 780.977 439.688C780.785 439.875 780.547 439.968 780.265 439.968ZM788.896 441H790.848V449.152C790.848 449.728 790.731 450.251 790.496 450.72C790.261 451.195 789.941 451.6 789.536 451.936C789.131 452.277 788.667 452.539 788.144 452.72C787.621 452.907 787.072 453 786.496 453C785.936 453 785.397 452.885 784.88 452.656C784.363 452.427 783.904 452.112 783.504 451.712C783.109 451.317 782.808 450.867 782.6 450.36L784.384 449.552C784.491 449.845 784.651 450.101 784.864 450.32C785.083 450.544 785.333 450.717 785.616 450.84C785.899 450.968 786.192 451.032 786.496 451.032C786.805 451.032 787.101 450.989 787.384 450.904C787.672 450.819 787.931 450.693 788.16 450.528C788.389 450.368 788.568 450.171 788.696 449.936C788.829 449.707 788.896 449.445 788.896 449.152V448.024C788.645 448.376 788.331 448.661 787.952 448.88C787.573 449.099 787.136 449.208 786.64 449.208C786.064 449.208 785.525 449.099 785.024 448.88C784.523 448.661 784.08 448.36 783.696 447.976C783.317 447.587 783.019 447.139 782.8 446.632C782.587 446.125 782.48 445.581 782.48 445C782.48 444.419 782.587 443.875 782.8 443.368C783.019 442.861 783.317 442.416 783.696 442.032C784.08 441.643 784.523 441.339 785.024 441.12C785.525 440.901 786.064 440.792 786.64 440.792C787.136 440.792 787.573 440.901 787.952 441.12C788.331 441.333 788.645 441.616 788.896 441.968V441ZM786.664 447.328C787.075 447.328 787.437 447.224 787.752 447.016C788.072 446.803 788.323 446.52 788.504 446.168C788.685 445.811 788.776 445.421 788.776 445C788.776 444.573 788.683 444.184 788.496 443.832C788.315 443.48 788.064 443.197 787.744 442.984C787.429 442.771 787.069 442.664 786.664 442.664C786.264 442.664 785.899 442.771 785.568 442.984C785.237 443.192 784.973 443.472 784.776 443.824C784.579 444.176 784.48 444.568 784.48 445C784.48 445.432 784.579 445.824 784.776 446.176C784.973 446.528 785.237 446.808 785.568 447.016C785.899 447.224 786.264 447.328 786.664 447.328ZM792.773 449V441H794.725V441.712C794.997 441.424 795.322 441.197 795.701 441.032C796.079 440.861 796.487 440.776 796.925 440.776C797.479 440.776 797.989 440.907 798.453 441.168C798.922 441.429 799.295 441.779 799.573 442.216C799.855 441.779 800.229 441.429 800.693 441.168C801.157 440.907 801.666 440.776 802.221 440.776C802.807 440.776 803.338 440.92 803.813 441.208C804.293 441.491 804.674 441.872 804.957 442.352C805.245 442.827 805.389 443.357 805.389 443.944V449H803.437V444.464C803.437 444.155 803.359 443.872 803.205 443.616C803.055 443.355 802.853 443.147 802.597 442.992C802.346 442.832 802.063 442.752 801.749 442.752C801.434 442.752 801.149 442.829 800.893 442.984C800.642 443.133 800.439 443.336 800.285 443.592C800.13 443.848 800.053 444.139 800.053 444.464V449H798.101V444.464C798.101 444.139 798.026 443.848 797.877 443.592C797.727 443.336 797.525 443.133 797.269 442.984C797.013 442.829 796.727 442.752 796.413 442.752C796.103 442.752 795.821 442.832 795.565 442.992C795.309 443.147 795.103 443.355 794.949 443.616C794.799 443.872 794.725 444.155 794.725 444.464V449H792.773ZM812.867 441H814.819V449H812.867L812.779 448.008C812.56 448.365 812.27 448.656 811.907 448.88C811.55 449.099 811.126 449.208 810.635 449.208C810.043 449.208 809.488 449.096 808.971 448.872C808.454 448.648 807.998 448.339 807.603 447.944C807.214 447.549 806.907 447.093 806.683 446.576C806.464 446.059 806.355 445.504 806.355 444.912C806.355 444.341 806.459 443.805 806.667 443.304C806.88 442.803 807.176 442.363 807.555 441.984C807.934 441.605 808.371 441.309 808.867 441.096C809.363 440.883 809.896 440.776 810.467 440.776C810.995 440.776 811.467 440.893 811.883 441.128C812.304 441.363 812.662 441.661 812.955 442.024L812.867 441ZM810.587 447.328C811.003 447.328 811.371 447.224 811.691 447.016C812.011 446.808 812.262 446.528 812.443 446.176C812.624 445.819 812.715 445.427 812.715 445C812.715 444.568 812.624 444.176 812.443 443.824C812.262 443.467 812.008 443.184 811.683 442.976C811.363 442.768 810.998 442.664 810.587 442.664C810.176 442.664 809.8 442.771 809.459 442.984C809.123 443.192 808.854 443.472 808.651 443.824C808.454 444.176 808.355 444.568 808.355 445C808.355 445.432 808.456 445.824 808.659 446.176C808.862 446.528 809.131 446.808 809.467 447.016C809.808 447.224 810.182 447.328 810.587 447.328Z" fill="white"/>
<path d="M244.504 260.125H220.754L217.004 267H212.629L230.129 237H235.129L252.629 267H248.254L244.504 260.125ZM242.629 257L232.629 239.5L222.629 257H242.629ZM277.629 237H281.379V267H277.629V237ZM320.754 267.43C318.254 267.43 316.132 267.26 314.387 266.922C312.642 266.57 311.223 265.971 310.129 265.125C309.035 264.279 308.241 263.146 307.746 261.727C307.251 260.307 307.004 258.523 307.004 256.375C307.004 253.914 307.251 251.883 307.746 250.281C308.241 248.667 309.035 247.384 310.129 246.434C311.223 245.483 312.642 244.819 314.387 244.441C316.132 244.064 318.254 243.875 320.754 243.875C322.538 243.875 324.081 244.005 325.383 244.266C326.698 244.526 327.818 244.904 328.742 245.398C329.68 245.893 330.435 246.492 331.008 247.195C331.594 247.898 332.049 248.641 332.375 249.422C332.714 250.19 332.941 251.095 333.059 252.137C333.189 253.178 333.254 254.279 333.254 255.438L332.941 256.688H310.754C310.754 258.406 310.923 259.819 311.262 260.926C311.6 262.02 312.16 262.82 312.941 263.328C313.723 263.836 314.751 264.161 316.027 264.305C317.303 264.435 318.879 264.5 320.754 264.5C322.473 264.5 323.892 264.454 325.012 264.363C326.145 264.259 327.043 264.07 327.707 263.797C328.371 263.523 328.833 263.146 329.094 262.664C329.367 262.169 329.504 261.531 329.504 260.75H333.254C333.254 261.961 333.039 262.996 332.609 263.855C332.193 264.702 331.496 265.392 330.52 265.926C329.543 266.447 328.254 266.824 326.652 267.059C325.064 267.306 323.098 267.43 320.754 267.43ZM320.754 247C319.504 247 318.384 247.026 317.395 247.078C316.418 247.13 315.559 247.247 314.816 247.43C314.087 247.599 313.462 247.853 312.941 248.191C312.421 248.517 311.997 248.908 311.672 249.363C311.359 249.806 311.125 250.438 310.969 251.258C310.826 252.065 310.754 253.042 310.754 254.188H329.504C329.504 252.664 329.341 251.473 329.016 250.613C328.69 249.741 328.176 249.025 327.473 248.465C326.77 247.905 325.865 247.521 324.758 247.312C323.651 247.104 322.316 247 320.754 247ZM358.254 237H362.004V253.406H363.254L377.004 244.5H382.629L366.691 254.969L383.254 267H377.629L363.254 256.219H362.004V267H358.254V237ZM409.523 244.5V257C409.523 258.393 409.628 259.572 409.836 260.535C410.044 261.486 410.461 262.254 411.086 262.84C411.711 263.426 412.596 263.849 413.742 264.109C414.888 264.37 416.398 264.5 418.273 264.5C420.305 264.5 421.965 264.35 423.254 264.051C424.556 263.751 425.578 263.328 426.32 262.781C427.062 262.234 427.57 261.577 427.844 260.809C428.13 260.04 428.273 259.188 428.273 258.25V244.5H432.023V267H428.273V263.25C428.091 263.654 427.785 264.103 427.355 264.598C426.926 265.079 426.281 265.529 425.422 265.945C424.562 266.362 423.449 266.714 422.082 267C420.728 267.286 419.042 267.43 417.023 267.43C415.344 267.43 413.898 267.326 412.688 267.117C411.49 266.922 410.467 266.629 409.621 266.238C408.788 265.835 408.117 265.34 407.609 264.754C407.102 264.168 406.711 263.491 406.438 262.723C406.164 261.941 405.982 261.076 405.891 260.125C405.799 259.174 405.754 258.133 405.754 257L405.773 244.5H409.523Z" fill="white"/>
<path d="M519.543 237V240.125H504.543V267H500.793V240.125H485.793V237H519.543ZM547.668 267.43C545.168 267.43 543.046 267.26 541.301 266.922C539.556 266.57 538.137 265.971 537.043 265.125C535.949 264.279 535.155 263.146 534.66 261.727C534.165 260.307 533.918 258.523 533.918 256.375C533.918 253.914 534.165 251.883 534.66 250.281C535.155 248.667 535.949 247.384 537.043 246.434C538.137 245.483 539.556 244.819 541.301 244.441C543.046 244.064 545.168 243.875 547.668 243.875C549.452 243.875 550.995 244.005 552.297 244.266C553.612 244.526 554.732 244.904 555.656 245.398C556.594 245.893 557.349 246.492 557.922 247.195C558.508 247.898 558.964 248.641 559.289 249.422C559.628 250.19 559.855 251.095 559.973 252.137C560.103 253.178 560.168 254.279 560.168 255.438L559.855 256.688H537.668C537.668 258.406 537.837 259.819 538.176 260.926C538.514 262.02 539.074 262.82 539.855 263.328C540.637 263.836 541.665 264.161 542.941 264.305C544.217 264.435 545.793 264.5 547.668 264.5C549.387 264.5 550.806 264.454 551.926 264.363C553.059 264.259 553.957 264.07 554.621 263.797C555.285 263.523 555.747 263.146 556.008 262.664C556.281 262.169 556.418 261.531 556.418 260.75H560.168C560.168 261.961 559.953 262.996 559.523 263.855C559.107 264.702 558.41 265.392 557.434 265.926C556.457 266.447 555.168 266.824 553.566 267.059C551.978 267.306 550.012 267.43 547.668 267.43ZM547.668 247C546.418 247 545.298 247.026 544.309 247.078C543.332 247.13 542.473 247.247 541.73 247.43C541.001 247.599 540.376 247.853 539.855 248.191C539.335 248.517 538.911 248.908 538.586 249.363C538.273 249.806 538.039 250.438 537.883 251.258C537.74 252.065 537.668 253.042 537.668 254.188H556.418C556.418 252.664 556.255 251.473 555.93 250.613C555.604 249.741 555.09 249.025 554.387 248.465C553.684 247.905 552.779 247.521 551.672 247.312C550.565 247.104 549.23 247 547.668 247ZM584.543 255.789C584.543 254.227 584.621 252.846 584.777 251.648C584.934 250.451 585.207 249.409 585.598 248.523C586.001 247.638 586.535 246.902 587.199 246.316C587.876 245.717 588.723 245.236 589.738 244.871C590.767 244.507 591.984 244.246 593.391 244.09C594.797 243.934 596.438 243.855 598.312 243.855C600.812 243.855 602.87 244.012 604.484 244.324C606.099 244.624 607.375 245.092 608.312 245.73C609.25 246.355 609.901 247.156 610.266 248.133C610.63 249.096 610.812 250.249 610.812 251.59H607.062C607.062 251.108 607.049 250.659 607.023 250.242C606.997 249.826 606.9 249.448 606.73 249.109C606.574 248.771 606.32 248.471 605.969 248.211C605.617 247.938 605.116 247.71 604.465 247.527C603.814 247.345 602.987 247.208 601.984 247.117C600.995 247.026 599.771 246.98 598.312 246.98C596.646 246.98 595.24 247.039 594.094 247.156C592.961 247.273 592.023 247.469 591.281 247.742C590.539 248.003 589.966 248.361 589.562 248.816C589.159 249.259 588.866 249.806 588.684 250.457C588.501 251.108 588.391 251.876 588.352 252.762C588.326 253.634 588.312 254.643 588.312 255.789C588.312 256.909 588.326 257.905 588.352 258.777C588.391 259.637 588.501 260.392 588.684 261.043C588.866 261.681 589.159 262.221 589.562 262.664C589.966 263.107 590.539 263.465 591.281 263.738C592.023 264.012 592.961 264.207 594.094 264.324C595.24 264.441 596.646 264.5 598.312 264.5C599.771 264.5 600.995 264.448 601.984 264.344C602.987 264.24 603.814 264.09 604.465 263.895C605.116 263.699 605.617 263.458 605.969 263.172C606.32 262.885 606.574 262.56 606.73 262.195C606.9 261.818 606.997 261.408 607.023 260.965C607.049 260.509 607.062 260.021 607.062 259.5H610.812C610.812 260.867 610.63 262.052 610.266 263.055C609.901 264.057 609.25 264.884 608.312 265.535C607.375 266.173 606.099 266.648 604.484 266.961C602.87 267.273 600.812 267.43 598.312 267.43C596.438 267.43 594.797 267.352 593.391 267.195C591.984 267.039 590.767 266.785 589.738 266.434C588.723 266.069 587.876 265.594 587.199 265.008C586.535 264.422 586.001 263.699 585.598 262.84C585.207 261.98 584.934 260.971 584.777 259.812C584.621 258.641 584.543 257.299 584.543 255.789ZM658.332 267V254.305C658.332 252.951 658.228 251.811 658.02 250.887C657.811 249.949 657.395 249.194 656.77 248.621C656.145 248.048 655.259 247.638 654.113 247.391C652.967 247.13 651.457 247 649.582 247C647.551 247 645.884 247.15 644.582 247.449C643.293 247.736 642.277 248.146 641.535 248.68C640.793 249.201 640.279 249.832 639.992 250.574C639.719 251.316 639.582 252.143 639.582 253.055V267H635.832V237H639.582V248.055C639.842 247.443 640.214 246.915 640.695 246.473C641.177 246.03 641.73 245.652 642.355 245.34C642.993 245.027 643.677 244.78 644.406 244.598C645.135 244.402 645.871 244.253 646.613 244.148C647.368 244.044 648.104 243.973 648.82 243.934C649.549 243.895 650.22 243.875 650.832 243.875C652.499 243.875 653.931 243.979 655.129 244.188C656.34 244.383 657.362 244.682 658.195 245.086C659.042 245.477 659.719 245.965 660.227 246.551C660.734 247.137 661.125 247.82 661.398 248.602C661.685 249.37 661.874 250.236 661.965 251.199C662.056 252.15 662.102 253.185 662.102 254.305L662.082 267H658.332Z" fill="#3195FF"/>
<g opacity="0.3">
<path d="M623.939 197.856V99.1953H322.532" stroke="#3195FF"/>
<path d="M282.013 337.6V436.261L583.776 436.261" stroke="#3195FF" stroke-linecap="round"/>
<path d="M264.952 136.232V234.893L566.715 234.893" stroke="#3195FF" stroke-linecap="round"/>
<path d="M463.995 266.95V365.611L765.757 365.611" stroke="#3195FF" stroke-linecap="round"/>
<path d="M412.066 448.088V349.427H110.304" stroke="#3195FF" stroke-linecap="round"/>
<path d="M395.006 246.72V148.059H93.2431" stroke="#3195FF" stroke-linecap="round"/>
<path d="M594.048 377.438V278.777H292.285" stroke="#3195FF" stroke-linecap="round"/>
<path d="M500.249 87.0571V185.718L802.011 185.718" stroke="#3195FF" stroke-linecap="round"/>
<path d="M615.053 207.193V108.532H313.646" stroke="#3195FF"/>
<path d="M290.899 328.263V426.925L592.661 426.925" stroke="#3195FF" stroke-linecap="round"/>
<path d="M273.838 126.895V225.556L575.6 225.556" stroke="#3195FF" stroke-linecap="round"/>
<path d="M472.88 257.613V356.274L774.643 356.274" stroke="#3195FF" stroke-linecap="round"/>
<path d="M403.397 457.581V358.919H101.635" stroke="#3195FF" stroke-linecap="round"/>
<path d="M386.337 256.212V157.551H84.5742" stroke="#3195FF" stroke-linecap="round"/>
<path d="M585.379 386.931V288.27H283.617" stroke="#3195FF" stroke-linecap="round"/>
<path d="M509.134 77.72V176.381L810.897 176.381" stroke="#3195FF" stroke-linecap="round"/>
<path d="M602.613 219.02V120.359H301.206" stroke="#3195FF"/>
<path d="M303.339 316.437V415.098L604.746 415.098" stroke="#3195FF" stroke-linecap="round"/>
<path d="M286.278 115.068V213.729L587.685 213.729" stroke="#3195FF" stroke-linecap="round"/>
<path d="M485.321 245.786V344.448L786.728 344.448" stroke="#3195FF" stroke-linecap="round"/>
<path d="M391.233 469.622V370.961H89.8256" stroke="#3195FF" stroke-linecap="round"/>
<path d="M374.172 268.254V169.593H72.7649" stroke="#3195FF" stroke-linecap="round"/>
<path d="M573.214 398.972V300.311H271.807" stroke="#3195FF" stroke-linecap="round"/>
<path d="M521.575 65.8933V164.554L822.982 164.554" stroke="#3195FF" stroke-linecap="round"/>
<path d="M591.595 229.913V131.252H290.188" stroke="#3195FF"/>
<path d="M314.357 305.543V404.204L615.764 404.204" stroke="#3195FF" stroke-linecap="round"/>
<path d="M297.297 104.175V202.836L598.703 202.836" stroke="#3195FF" stroke-linecap="round"/>
<path d="M496.339 234.893V333.554L797.746 333.554" stroke="#3195FF" stroke-linecap="round"/>
<path d="M380.468 480.708V382.047H79.0607" stroke="#3195FF" stroke-linecap="round"/>
<path d="M363.407 279.339V180.678H62" stroke="#3195FF" stroke-linecap="round"/>
<path d="M562.449 410.058V311.396H261.042" stroke="#3195FF" stroke-linecap="round"/>
<path d="M532.593 55V153.661L834 153.661" stroke="#3195FF" stroke-linecap="round"/>
</g>
<defs>
<linearGradient id="paint0_linear_9_190" x1="1.33848e-06" y1="249.5" x2="876" y2="249.5" gradientUnits="userSpaceOnUse">
<stop stop-color="#002C44"/>
<stop offset="1"/>
</linearGradient>
</defs>
</svg>
